HIERARCHY
ROOT Hips
{
    OFFSET 0.000000 0.000000 0.000000
    CHANNELS 6 Xposition Yposition Zposition Zrotation Yrotation Xrotation
    JOINT Chest
    {
        OFFSET 0.000000 1.634758 -0.000000
        CHANNELS 3 Zrotation Yrotation Xrotation
        JOINT Chest2
        {
            OFFSET 0.000000 2.197341 0.000000
            CHANNELS 3 Zrotation Yrotation Xrotation
            JOINT Neck
            {
                OFFSET 0.000000 0.961544 0.000000
                CHANNELS 3 Zrotation Yrotation Xrotation
                JOINT Head
                {
                    OFFSET 0.000000 0.632542 -0.032565
                    CHANNELS 3 Zrotation Yrotation Xrotation
                    End Site
                    {
                        OFFSET -0.000001 0.439502 2.922845
                    }
                }
            }
            JOINT LeftCollar
            {
                OFFSET 0.167536 0.778237 -0.168280
                CHANNELS 3 Zrotation Yrotation Xrotation
                JOINT LeftShoulder
                {
                    OFFSET 0.831514 -0.002900 0.006458
                    CHANNELS 3 Zrotation Yrotation Xrotation
                    JOINT LeftElbow
                    {
                        OFFSET 2.272872 -0.026639 0.059314
                        CHANNELS 3 Zrotation Yrotation Xrotation
                        JOINT LeftWrist
                        {
                            OFFSET 2.081982 -0.024402 0.054333
                            CHANNELS 3 Zrotation Yrotation Xrotation
                            JOINT LeftHandThumb1
                            {
                                OFFSET 0.218903 -0.128645 0.283837
                                CHANNELS 3 Zrotation Yrotation Xrotation
                                JOINT LeftHandThumb2
                                {
                                    OFFSET 0.137157 -0.025101 0.077902
                                    CHANNELS 3 Zrotation Yrotation Xrotation
                                    JOINT LeftHandThumb3
                                    {
                                        OFFSET 0.165861 -0.067014 0.039226
                                        CHANNELS 3 Zrotation Yrotation Xrotation
                                        End Site
                                        {
                                            OFFSET 0.241157 -0.045065 0.107930
                                        }
                                    }
                                }
                            }
                            JOINT LeftHandFore1
                            {
                                OFFSET 0.767340 -0.016076 0.196678
                                CHANNELS 3 Zrotation Yrotation Xrotation
                                JOINT LeftHandFore2
                                {
                                    OFFSET 0.212944 -0.039015 0.011315
                                    CHANNELS 3 Zrotation Yrotation Xrotation
                                    JOINT LeftHandFore3
                                    {
                                        OFFSET 0.126107 -0.028526 0.006804
                                        CHANNELS 3 Zrotation Yrotation Xrotation
                                        End Site
                                        {
                                            OFFSET 0.190484 -0.032402 0.005737
                                        }
                                    }
                                }
                            }
                            JOINT LeftHandMiddle1
                            {
                                OFFSET 0.709887 -0.008320 0.018526
                                CHANNELS 3 Zrotation Yrotation Xrotation
                                JOINT LeftHandMiddle2
                                {
                                    OFFSET 0.209127 -0.127483 0.008816
                                    CHANNELS 3 Zrotation Yrotation Xrotation
                                    JOINT LeftHandMiddle3
                                    {
                                        OFFSET 0.100261 -0.106283 0.005918
                                        CHANNELS 3 Zrotation Yrotation Xrotation
                                        End Site
                                        {
                                            OFFSET 0.122274 -0.201419 0.010483
                                        }
                                    }
                                }
                            }
                            JOINT LeftHandRing1
                            {
                                OFFSET 0.743817 -0.005823 -0.153668
                                CHANNELS 3 Zrotation Yrotation Xrotation
                                JOINT LeftHandRing2
                                {
                                    OFFSET 0.312797 -0.163728 -0.009197
                                    CHANNELS 3 Zrotation Yrotation Xrotation
                                    JOINT LeftHandRing3
                                    {
                                        OFFSET 0.077856 -0.111983 0.001957
                                        CHANNELS 3 Zrotation Yrotation Xrotation
                                        End Site
                                        {
                                            OFFSET 0.046861 -0.110548 0.001738
                                        }
                                    }
                                }
                            }
                            JOINT LeftHandLittle1
                            {
                                OFFSET 0.689408 -0.053302 -0.308304
                                CHANNELS 3 Zrotation Yrotation Xrotation
                                JOINT LeftHandLittle2
                                {
                                    OFFSET 0.187514 -0.050420 -0.018722
                                    CHANNELS 3 Zrotation Yrotation Xrotation
                                    JOINT LeftHandLittle3
                                    {
                                        OFFSET 0.110150 -0.047159 -0.011802
                                        CHANNELS 3 Zrotation Yrotation Xrotation
                                        End Site
                                        {
                                            OFFSET 0.184611 -0.045535 -0.011576
                                        }
                                    }
                                }
                            }
                        }
                    }
                }
            }
            JOINT RightCollar
            {
                OFFSET -0.167536 0.778237 -0.168280
                CHANNELS 3 Zrotation Yrotation Xrotation
                JOINT RightShoulder
                {
                    OFFSET -0.831514 -0.002900 0.006457
                    CHANNELS 3 Zrotation Yrotation Xrotation
                    JOINT RightElbow
                    {
                        OFFSET -2.272872 -0.026639 0.059313
                        CHANNELS 3 Zrotation Yrotation Xrotation
                        JOINT RightWrist
                        {
                            OFFSET -2.081982 -0.024402 0.054331
                            CHANNELS 3 Zrotation Yrotation Xrotation
                            JOINT RightHandThumb1
                            {
                                OFFSET -0.218911 -0.128571 0.283837
                                CHANNELS 3 Zrotation Yrotation Xrotation
                                JOINT RightHandThumb2
                                {
                                    OFFSET -0.137157 -0.025101 0.077902
                                    CHANNELS 3 Zrotation Yrotation Xrotation
                                    JOINT RightHandThumb3
                                    {
                                        OFFSET -0.165861 -0.067014 0.039226
                                        CHANNELS 3 Zrotation Yrotation Xrotation
                                        End Site
                                        {
                                            OFFSET -0.229436 -0.065997 0.121819
                                        }
                                    }
                                }
                            }
                            JOINT RightHandFore1
                            {
                                OFFSET -0.767344 -0.015991 0.196679
                                CHANNELS 3 Zrotation Yrotation Xrotation
                                JOINT RightHandFore2
                                {
                                    OFFSET -0.212956 -0.038967 0.011314
                                    CHANNELS 3 Zrotation Yrotation Xrotation
                                    JOINT RightHandFore3
                                    {
                                        OFFSET -0.126114 -0.028498 0.006722
                                        CHANNELS 3 Zrotation Yrotation Xrotation
                                        End Site
                                        {
                                            OFFSET -0.190043 -0.032287 0.014424
                                        }
                                    }
                                }
                            }
                            JOINT RightHandMiddle1
                            {
                                OFFSET -0.709887 -0.008302 0.018525
                                CHANNELS 3 Zrotation Yrotation Xrotation
                                JOINT RightHandMiddle2
                                {
                                    OFFSET -0.209111 -0.127502 0.008816
                                    CHANNELS 3 Zrotation Yrotation Xrotation
                                    JOINT RightHandMiddle3
                                    {
                                        OFFSET -0.100331 -0.106323 0.003652
                                        CHANNELS 3 Zrotation Yrotation Xrotation
                                        End Site
                                        {
                                            OFFSET -0.122536 -0.201510 0.002965
                                        }
                                    }
                                }
                            }
                            JOINT RightHandRing1
                            {
                                OFFSET -0.743819 -0.005785 -0.153669
                                CHANNELS 3 Zrotation Yrotation Xrotation
                                JOINT RightHandRing2
                                {
                                    OFFSET -0.312809 -0.163706 -0.009196
                                    CHANNELS 3 Zrotation Yrotation Xrotation
                                    JOINT RightHandRing3
                                    {
                                        OFFSET -0.077666 -0.111584 -0.011046
                                        CHANNELS 3 Zrotation Yrotation Xrotation
                                        End Site
                                        {
                                            OFFSET -0.046690 -0.110188 -0.009945
                                        }
                                    }
                                }
                            }
                            JOINT RightHandLittle1
                            {
                                OFFSET -0.689403 -0.053298 -0.308303
                                CHANNELS 3 Zrotation Yrotation Xrotation
                                JOINT RightHandLittle2
                                {
                                    OFFSET -0.187518 -0.050415 -0.018723
                                    CHANNELS 3 Zrotation Yrotation Xrotation
                                    JOINT RightHandLittle3
                                    {
                                        OFFSET -0.110149 -0.047154 -0.011798
                                        CHANNELS 3 Zrotation Yrotation Xrotation
                                        End Site
                                        {
                                            OFFSET -0.183446 -0.044965 -0.024786
                                        }
                                    }
                                }
                            }
                        }
                    }
                }
            }
        }
    }
    JOINT LeftHip
    {
        OFFSET 0.685143 0.673822 -0.044491
        CHANNELS 3 Zrotation Yrotation Xrotation
        JOINT LeftKnee
        {
            OFFSET 0.085364 -3.750208 0.017676
            CHANNELS 3 Zrotation Yrotation Xrotation
            JOINT LeftAnkle
            {
                OFFSET 0.094583 -4.155206 0.019585
                CHANNELS 3 Zrotation Yrotation Xrotation
                JOINT LeftToe
                {
                    OFFSET -0.000000 -0.395925 0.621478
                    CHANNELS 3 Zrotation Yrotation Xrotation
                    End Site
                    {
                        OFFSET -0.000000 -0.077878 0.321152
                    }
                }
            }
        }
    }
    JOINT RightHip
    {
        OFFSET -0.685143 0.673822 -0.044492
        CHANNELS 3 Zrotation Yrotation Xrotation
        JOINT RightKnee
        {
            OFFSET -0.085364 -3.750208 0.017677
            CHANNELS 3 Zrotation Yrotation Xrotation
            JOINT RightAnkle
            {
                OFFSET -0.094583 -4.155206 0.019585
                CHANNELS 3 Zrotation Yrotation Xrotation
                JOINT RightToe
                {
                    OFFSET -0.000000 -0.395925 0.621478
                    CHANNELS 3 Zrotation Yrotation Xrotation
                    End Site
                    {
                        OFFSET -0.000000 -0.077878 0.321152
                    }
                }
            }
        }
    }
}
MOTION
Frames: 4
Frame Time: 0.033333
-6.488718 8.344669 -2.212661 -0.859064 -3.172616 -0.216095 -0.036369 8.321934 -8.245589 -0.590648 -1.248165 -5.119615 12.116413 -3.932397 1.013017 0.497328 -9.569889 3.638690 8.215856 -6.494900 0.144728 33.463688 -17.139095 -0.826237 0.048982 -21.544212 -0.264808 -24.415630 2.691186 -10.852365 -0.000012 -0.000000 -0.000002 0.801910 7.733894 4.883289 8.425952 -12.530602 14.972007 2.837957 -7.108745 -2.032127 5.802217 1.338658 -0.309839 1.959749 0.666273 -0.366310 22.354998 -2.489884 -3.923541 15.367508 2.936012 0.707408 14.314969 1.150474 0.319967 14.617918 0.810463 -1.287596 21.109377 0.074859 1.290087 14.877527 0.662711 0.412132 7.335173 2.495278 -0.459140 5.855221 0.811351 0.545273 2.692992 0.317587 0.508321 -6.997293 8.502348 -0.171873 -26.734888 25.424595 4.765680 0.000003 -0.000000 -0.000001 26.466164 0.754331 -8.068888 0.000007 0.000015 -0.000010 8.123526 -3.883520 1.387997 3.184429 -0.383861 -21.644440 -2.177790 5.494370 -1.570642 -5.845788 1.174359 -0.277105 -2.003923 0.617002 0.164642 -22.355034 2.490150 -3.923139 -15.386248 2.261238 -1.858257 -14.297835 0.678614 -1.256715 -18.166880 -0.995552 -1.677790 -21.085342 1.483534 -1.007091 -14.806424 1.644015 -0.157966 -9.121767 -3.042493 -0.633927 -5.744406 1.392388 0.442920 -2.696768 0.575054 -0.042453 3.457605 4.081750 29.484035 0.000000 -0.000000 0.000000 9.253181 11.151075 9.204660 0.355446 2.679692 -6.072103 0.445238 0.278133 -15.656541 -0.076609 -0.440426 19.737110 6.283592 11.498682 3.398511 0.027928 1.519920 -12.577831
-6.523601 8.344835 -2.067127 -1.144920 -2.919135 -0.347157 0.110180 7.880779 -8.604585 -0.664756 -1.176543 -5.137175 13.438815 -4.009644 1.021216 0.495953 -9.544006 3.641351 8.715356 -6.631968 0.142939 35.757351 -17.391874 -1.245710 0.048019 -21.346432 -0.262137 -21.690081 2.868202 -11.096236 -0.000017 -0.000019 -0.000011 0.808688 7.774161 4.915562 8.488791 -12.635119 15.071054 2.861812 -7.166677 -2.048751 5.849514 1.348257 -0.311854 1.975758 0.670024 -0.368589 22.478195 -2.509929 -3.953822 15.493099 2.958318 0.715524 14.431664 1.159778 0.323300 14.705462 0.818262 -1.298464 21.281469 0.075353 1.299491 14.998792 0.668422 0.415596 7.379521 2.518150 -0.463028 5.887572 0.818185 0.549276 2.714615 0.320254 0.511992 -7.329170 8.319201 -0.168322 -27.964830 24.991194 4.625413 -0.000000 -0.000000 0.000000 24.395082 0.800801 -8.934865 0.000006 0.000007 -0.000009 8.168842 -3.907711 1.389384 3.206981 -0.369465 -21.807936 -2.199023 5.546635 -1.585619 -5.893448 1.182362 -0.279795 -2.020190 0.620318 0.165284 -22.478239 2.510182 -3.953424 -15.512119 2.277699 -1.874455 -14.414451 0.683134 -1.267161 -18.266850 -1.004169 -1.689986 -21.257240 1.495800 -1.016355 -14.927074 1.657947 -0.160403 -9.172432 -3.067343 -0.638413 -5.775953 1.402699 0.444209 -2.718308 0.579869 -0.042447 3.537062 3.208938 30.489138 0.000000 -0.000000 0.000002 9.337365 11.200019 9.409373 0.334800 2.147353 -4.766767 0.886446 0.302906 -14.898982 -0.083185 -0.458344 20.575647 5.721186 11.413616 1.459275 0.039798 1.420856 -12.026015
-6.559844 8.345072 -1.924014 -1.463582 -2.634051 -0.462669 0.276171 7.484808 -8.876273 -0.723137 -1.112278 -5.113586 14.797943 -4.085731 0.969296 0.495688 -9.538866 3.532218 9.199634 -6.741584 0.141070 37.952232 -17.976164 -1.662592 0.042688 -20.208864 -0.246916 -18.870737 3.050775 -11.295053 -0.000020 0.000003 0.000000 0.815458 7.814206 4.947721 8.551465 -12.739421 15.169664 2.885631 -7.224446 -2.065332 5.896684 1.357822 -0.313872 1.991717 0.673754 -0.370860 22.600819 -2.529905 -3.984019 15.618375 2.980566 0.723639 14.548050 1.169066 0.326628 14.793010 0.826095 -1.309341 21.453125 0.075848 1.308860 15.119746 0.674126 0.419061 7.423881 2.541047 -0.466929 5.919779 0.825006 0.553267 2.736187 0.322913 0.515647 -7.663563 8.099139 -0.164965 -29.197987 24.416758 4.504043 0.000003 -0.000002 0.000000 22.322496 0.843661 -9.749334 -0.000001 0.000003 -0.000001 8.213952 -3.931819 1.390705 3.229483 -0.354896 -21.970943 -2.220293 5.598953 -1.600604 -5.940991 1.190342 -0.282485 -2.036403 0.623612 0.165926 -22.600864 2.530159 -3.983613 -15.637681 2.294122 -1.890600 -14.530762 0.687637 -1.277570 -18.366343 -1.012777 -1.702131 -21.428699 1.508041 -1.025616 -15.047418 1.671854 -0.162865 -9.222838 -3.092122 -0.642874 -5.807364 1.412985 0.445477 -2.739796 0.584674 -0.042438 3.575124 2.240904 31.477583 0.000000 0.000000 0.000002 9.413527 11.400170 9.682851 0.288996 1.621349 -3.522860 1.379291 0.330381 -14.013550 -0.087705 -0.470208 21.133446 5.180617 11.256565 -0.296821 0.048623 1.332883 -11.541226
-6.597265 8.345386 -1.784020 -1.812072 -2.319349 -0.560912 0.457048 7.136790 -9.071694 -0.768295 -1.055668 -5.056154 16.107304 -4.159181 0.867836 0.496523 -9.554702 3.332298 9.651305 -6.820464 0.139136 39.973545 -18.829906 -2.049731 0.034431 -18.270872 -0.221481 -15.972772 3.237193 -11.444534 -0.000014 -0.000015 -0.000007 0.822221 7.854058 4.979782 8.613984 -12.843511 15.267831 2.909400 -7.282075 -2.081887 5.943738 1.367360 -0.315877 2.007630 0.677463 -0.373121 22.722879 -2.549828 -4.014131 15.743330 3.002756 0.731749 14.664142 1.178333 0.329965 14.880573 0.833927 -1.320239 21.624334 0.076345 1.318195 15.240387 0.679816 0.422506 7.468259 2.563948 -0.470843 5.951827 0.831811 0.557242 2.757695 0.325561 0.519298 -7.985768 7.841471 -0.161716 -30.394775 23.713419 4.407236 0.000000 0.000002 -0.000001 20.247723 0.882723 -10.487835 0.000005 0.000007 -0.000009 8.258849 -3.955829 1.391965 3.251924 -0.340120 -22.133480 -2.241591 5.651346 -1.615611 -5.988409 1.198291 -0.285169 -2.052585 0.626913 0.166557 -22.722918 2.550090 -4.013718 -15.762924 2.310501 -1.906677 -14.646772 0.692110 -1.287949 -18.465353 -1.021360 -1.714241 -21.599716 1.520250 -1.034865 -15.167450 1.685731 -0.165338 -9.273021 -3.116831 -0.647322 -5.838630 1.423232 0.446727 -2.761232 0.589468 -0.042418 3.590246 1.218379 32.412861 0.000000 -0.000000 0.000002 9.473968 11.719319 10.041294 0.225196 1.135536 -2.412702 1.921331 0.360620 -13.019575 -0.090186 -0.476576 21.433702 4.661804 11.033372 -1.866167 0.054746 1.256953 -11.136463
